<?xml version="1.0" encoding="utf-8"?>
<!-- Generator: Adobe Illustrator 16.0.0, SVG Export Plug-In . SVG Version: 6.00 Build 0)  -->
<!DOCTYPE svg PUBLIC "-//W3C//DTD SVG 1.1//EN" "http://www.w3.org/Graphics/SVG/1.1/DTD/svg11.dtd">
<svg version="1.1" id="Layer_1" xmlns="http://www.w3.org/2000/svg" xmlns:xlink="http://www.w3.org/1999/xlink" x="0px" y="0px"
	 width="522px" height="142.208px" viewBox="0 0 522 142.208" enable-background="new 0 0 522 142.208" xml:space="preserve">
<polyline display="none" fill="#FFFFFF" stroke="#FFFFFF" stroke-miterlimit="10" points="-239.5,-257.059 -239.5,-279.059 
	-240,-278.559 -189,-278.559 -188.5,-279.059 -188.5,-257.059 -189,-257.559 -151,-257.559 -150.5,-258.059 -150.5,17.941 
	-150,18.441 -279,18.441 -278.5,17.941 -278.5,-258.059 -279,-257.559 -240,-257.559 "/>
<g display="none">
	<path display="inline" fill="#FFFFFF" stroke="#FFFFFF" stroke-miterlimit="10" d="M585.5,372.441c0,6.627-12.316,12-27.85,12
		H-35.371c-15.535,0-28.129-5.373-28.129-12v-105c0-6.627,12.594-12,28.129-12H557.65c15.533,0,27.85,5.373,27.85,12V372.441z"/>
	<path display="inline" fill="#FFFFFF" stroke="#FFFFFF" stroke-miterlimit="10" d="M635.5,333.441c0,6.627-13.093,12-28.626,12
		h-82.039c-15.533,0-28.335-5.373-28.335-12v-28c0-6.627,12.802-12,28.335-12h82.039c15.533,0,28.626,5.373,28.626,12V333.441z"/>
	<path display="inline" fill="#39B54A" d="M0.154,367.941c-16.062,0-30.154-4.477-30.154-11.323v-73.353
		c0-6.847,14.092-12.324,30.154-12.324H526.03c16.06,0,29.97,5.478,29.97,12.324v73.353c0,6.847-13.91,11.323-29.97,11.323H0.154z"
		/>
	<rect x="118.744" y="279.691" display="inline" fill="none" width="219.16" height="135.5"/>
	
		<text transform="matrix(0 0.4266 -1 0 219.9189 279.6909)" display="inline" fill="#FFFFFF" font-family="'MicrosoftNewTaiLue-Bold'" font-size="159.3893">99</text>
</g>
<rect x="571.017" y="-309.059" fill="none" width="275" height="85"/>
<text transform="matrix(1 0 0 1 571.0166 -260.5044)" display="none" fill="#FFFFFF" font-family="'TrebuchetMS-Bold'" font-size="65">0:17.56</text>
<rect x="504.108" y="-297.059" fill="none" width="125" height="61"/>
<text transform="matrix(1 0 0 1 504.1084 -273.4751)" display="none" fill="#FFFFFF" font-family="'TrebuchetMS'" font-size="32">Lap</text>
<rect x="639" y="-219.559" fill="none" width="275" height="85"/>
<text transform="matrix(1 0 0 1 639 -185.1973)" display="none" fill="#FFFFFF" font-family="'TrebuchetMS-Bold'" font-size="46">1:02.86</text>
<rect x="562" y="-213.059" fill="none" width="125" height="61"/>
<text transform="matrix(1 0 0 1 562 -189.4751)" display="none" fill="#FFFFFF" font-family="'TrebuchetMS'" font-size="32">Prev</text>
<g display="none">
	
		<rect x="707" y="27.941" display="inline" fill="none" stroke="#FFFFFF" stroke-width="4" stroke-miterlimit="10" width="131" height="271"/>
	
		<line display="inline" fill="none" stroke="#FFFFFF" stroke-width="4" stroke-miterlimit="10" x1="709" y1="253.941" x2="840" y2="253.941"/>
	
		<line display="inline" fill="none" stroke="#FFFFFF" stroke-width="4" stroke-miterlimit="10" x1="709" y1="207.941" x2="840" y2="207.941"/>
	
		<line display="inline" fill="none" stroke="#FFFFFF" stroke-width="4" stroke-miterlimit="10" x1="709" y1="162.941" x2="840" y2="162.941"/>
	
		<line display="inline" fill="none" stroke="#FFFFFF" stroke-width="4" stroke-miterlimit="10" x1="709" y1="117.941" x2="840" y2="117.941"/>
	
		<line display="inline" fill="none" stroke="#FFFFFF" stroke-width="4" stroke-miterlimit="10" x1="709" y1="71.941" x2="840" y2="71.941"/>
	
		<line display="inline" fill="none" stroke="#FFFFFF" stroke-width="4" stroke-miterlimit="10" x1="816" y1="25.941" x2="816" y2="296.941"/>
	
		<line display="inline" fill="none" stroke="#FFFFFF" stroke-width="4" stroke-miterlimit="10" x1="794" y1="25.941" x2="794" y2="296.941"/>
	
		<line display="inline" fill="none" stroke="#FFFFFF" stroke-width="4" stroke-miterlimit="10" x1="772" y1="25.941" x2="772" y2="296.941"/>
	
		<line display="inline" fill="none" stroke="#FFFFFF" stroke-width="4" stroke-miterlimit="10" x1="751" y1="25.941" x2="751" y2="296.941"/>
	
		<line display="inline" fill="none" stroke="#FFFFFF" stroke-width="4" stroke-miterlimit="10" x1="729" y1="25.941" x2="729" y2="296.941"/>
</g>
<path display="none" stroke="#FFFFFF" stroke-width="4" stroke-miterlimit="10" d="M825,276.941c0,6.627-5.373,12-12,12h-82
	c-6.627,0-12-5.373-12-12v-226c0-6.627,5.373-12,12-12h82c6.627,0,12,5.373,12,12V276.941z"/>
<path display="none" fill="#29ABE2" d="M782,317.441c0,5.799-3.806,10.5-8.5,10.5l0,0c-4.694,0-8.5-4.701-8.5-10.5v-43
	c0-5.799,3.806-10.5,8.5-10.5l0,0c4.694,0,8.5,4.701,8.5,10.5V317.441z"/>
<circle display="none" fill="#00FFFF" cx="712.5" cy="220.941" r="19"/>
<rect x="743" y="128.941" fill="none" width="63" height="111"/>
<text transform="matrix(1 0 0 1 743 192.02)" display="none" fill="#FFFFFF" font-family="'Tahoma-Bold'" font-size="83">2</text>
<rect x="-233.5" y="231.784" fill="none" width="275" height="85"/>
<text transform="matrix(1 0 0 1 -233.5 266.146)" display="none" fill="#FFFFFF" font-family="'TrebuchetMS-Bold'" font-size="46">3:01.91</text>
<rect x="-317" y="219.156" fill="none" width="125" height="84"/>
<text transform="matrix(1 0 0 1 -317 242.7397)" display="none"><tspan x="0" y="0" display="inline" fill="#FFFFFF" font-family="'TrebuchetMS'" font-size="32">Total</tspan><tspan x="0" y="38.4" display="inline" fill="#FFFFFF" font-family="'TrebuchetMS'" font-size="32">Time</tspan></text>
<rect display="none" fill="#C1272D" width="522" height="142.208"/>
<rect x="-249" y="-299.059" display="none" width="1024" height="600"/>
<circle display="none" cx="261.233" cy="130.326" r="82.313"/>
<g id="Meter" display="none">
	<g display="inline">
		<g>
			
				<line fill="none" stroke="#FFFFFF" stroke-width="6" stroke-miterlimit="10" x1="260.861" y1="70.034" x2="-15.019" y2="-44.239"/>
			
				<line fill="none" stroke="#FFFFFF" stroke-width="6" stroke-miterlimit="10" x1="261.025" y1="70.093" x2="49.876" y2="-141.055"/>
			
				<line fill="none" stroke="#FFFFFF" stroke-width="6" stroke-miterlimit="10" x1="260.133" y1="69.928" x2="145.858" y2="-205.95"/>
		</g>
		<g>
			
				<line fill="none" stroke="#FFFFFF" stroke-width="6" stroke-miterlimit="10" x1="260.403" y1="70.034" x2="536.282" y2="-44.239"/>
			
				<line fill="none" stroke="#FFFFFF" stroke-width="6" stroke-miterlimit="10" x1="260.237" y1="70.093" x2="471.388" y2="-141.055"/>
			
				<line fill="none" stroke="#FFFFFF" stroke-width="6" stroke-miterlimit="10" x1="261.131" y1="69.928" x2="375.405" y2="-205.95"/>
		</g>
	</g>
	
		<line display="inline" fill="none" stroke="#FFFFFF" stroke-width="6" stroke-miterlimit="10" x1="262" y1="70.941" x2="-36" y2="70.941"/>
	
		<line display="inline" fill="none" stroke="#FFFFFF" stroke-width="6" stroke-miterlimit="10" x1="262" y1="70.941" x2="262" y2="-227.059"/>
	
		<line display="inline" fill="none" stroke="#FFFFFF" stroke-width="6" stroke-miterlimit="10" x1="262" y1="70.941" x2="562" y2="70.941"/>
	<path display="inline" stroke="#FFFFFF" stroke-width="6" stroke-miterlimit="10" d="M533.86,71.078
		c0-150.093-121.674-271.768-271.767-271.768C112-200.69-9.675-79.015-9.675,71.078"/>
	<path display="inline" fill="none" stroke="#FF0000" stroke-width="20" stroke-miterlimit="10" d="M539,77.958
		c2.46-79.981-29.947-153.229-83.96-206.155"/>
	<path display="inline" d="M529.25,67.941c0,149.686-119.99,271.029-268,271.029c-148.012,0-268-121.344-268-271.029"/>
	<rect x="513" y="73.941" display="inline" width="71" height="51"/>
</g>
<g id="Pointer">
	<polyline stroke="#000000" stroke-width="4" stroke-linejoin="bevel" stroke-miterlimit="10" points="262,79.941 262,62.11 
		260.957,62.126 522,71.269 522,71.302 260.957,80.183 	"/>
	<polyline fill="#FFFFFF" stroke="#FFFFFF" stroke-width="4" stroke-linejoin="bevel" stroke-miterlimit="10" points="260,79.941 
		260,62.11 261.043,62.126 0,71.269 0,71.302 261.043,80.183 	"/>
	<circle fill="#FFFFFF" cx="261.233" cy="71.104" r="71.105"/>
	<circle cx="261.233" cy="71.104" r="57.916"/>
</g>
<circle id="The_dot" fill="#39B54A" cx="261.233" cy="71.104" r="44.814"/>
<g id="Battery" display="none">
	<path display="inline" fill="#FFFFFF" d="M544,227.263c0,5.527-2.842,10.678-6.527,10.678h-13.346
		c-3.686,0-6.127-5.15-6.127-10.678v-16.683c0-5.526,2.441-9.64,6.127-9.64h13.346c3.686,0,6.527,4.113,6.527,9.64V227.263z"/>
	<g display="inline">
		<g>
			<path fill="#FFFFFF" d="M520.791,173.941H2.809c-5.528,0-9.809,4.421-9.809,9.948v70.899c0,5.527,4.281,10.152,9.809,10.152
				h517.982c5.526,0,10.209-4.625,10.209-10.152v-70.899C531,178.362,526.317,173.941,520.791,173.941z M517,245.572
				c0,4.09-3.907,7.369-9.158,7.369H15.758c-5.251,0-9.758-3.279-9.758-7.369v-52.466c0-4.09,4.507-7.165,9.758-7.165h492.083
				c5.251,0,9.158,3.075,9.158,7.165V245.572z"/>
		</g>
	</g>
</g>
<g display="none">
	<rect x="-72.261" y="52.518" display="inline" fill="none" width="48.378" height="50.88"/>
	
		<text transform="matrix(1 0 0 1 -72.2607 88.0503)" display="inline" fill="#FFFFFF" font-family="'MyriadPro-Regular'" font-size="50.0465">0</text>
	<rect x="-49.739" y="-73.498" display="inline" fill="none" width="48.378" height="50.881"/>
	
		<text transform="matrix(1 0 0 1 -49.7393 -37.9648)" display="inline" fill="#FFFFFF" font-family="'MyriadPro-Regular'" font-size="50.0465">1</text>
	<rect x="250.539" y="-275.351" display="inline" fill="none" width="48.38" height="50.88"/>
	
		<text transform="matrix(1 0 0 1 250.5391 -239.8184)" display="inline" fill="#FFFFFF" font-family="'MyriadPro-Regular'" font-size="50.0465">4</text>
	<rect x="14.486" y="-181.931" display="inline" fill="none" width="48.379" height="50.88"/>
	
		<text transform="matrix(1 0 0 1 14.4863 -146.3984)" display="inline" fill="#FFFFFF" font-family="'MyriadPro-Regular'" font-size="50.0465">2</text>
	<rect x="120.835" y="-249.495" display="inline" fill="none" width="48.378" height="50.881"/>
	
		<text transform="matrix(1 0 0 1 120.835 -213.9619)" display="inline" fill="#FFFFFF" font-family="'MyriadPro-Regular'" font-size="50.0465">3</text>
	<rect x="371.485" y="-252.831" display="inline" fill="none" width="48.379" height="50.88"/>
	
		<text transform="matrix(1 0 0 1 371.4854 -217.2979)" display="inline" fill="#FFFFFF" font-family="'MyriadPro-Regular'" font-size="50.0465">5</text>
	<rect x="476.232" y="-180.746" display="inline" fill="none" width="48.378" height="50.881"/>
	
		<text transform="matrix(1 0 0 1 476.2324 -145.2129)" display="inline" fill="#FFFFFF" font-family="'MyriadPro-Regular'" font-size="50.0465">6</text>
	<rect x="545.814" y="-66.825" display="inline" fill="none" width="48.378" height="50.881"/>
	
		<text transform="matrix(1 0 0 1 545.8145 -31.292)" display="inline" fill="#FFFFFF" font-family="'MyriadPro-Regular'" font-size="50.0465">7</text>
	<rect x="574.172" y="51.685" display="inline" fill="none" width="48.38" height="50.88"/>
	
		<text transform="matrix(1 0 0 1 574.1719 87.2173)" display="inline" fill="#FFFFFF" font-family="'MyriadPro-Regular'" font-size="50.0465">8</text>
</g>
<line display="none" fill="none" stroke="#FF0000" stroke-width="4" stroke-miterlimit="10" x1="-249" y1="-299.059" x2="775" y2="300.941"/>
<line display="none" fill="none" stroke="#FF0000" stroke-width="4" stroke-miterlimit="10" x1="775" y1="-299.059" x2="-249" y2="300.941"/>
</svg>
